<svg xmlns="http://www.w3.org/2000/svg" viewBox="-0.5 -0.5 24 24" id="Money-Payments-Self-Payment--Streamline-Pixel.svg" height="24" width="24"><desc>Money Payments Self Payment Streamline Icon: https://streamlinehq.com</desc><title>money-payments-self-payment</title><g><path d="M12.04984375 16.423437500000002v-1.0925h7.6690625v-1.0925H3.2882812500000003v1.0925h7.6690625v1.0925H1.0960937499999999V23h20.8078125v-6.5765625000000005Zm8.7615625 5.476875h-18.615624999999998v-4.3771875h18.615624999999998Z" fill="#1c54bb" stroke-width="1"></path><path d="M19.71890625 1.0925h1.0925v13.145937499999999h-1.0925Z" fill="#1c54bb" stroke-width="1"></path><path d="M17.52671875 7.661875h1.0925v2.1921874999999997h-1.0925Z" fill="#1c54bb" stroke-width="1"></path><path d="M17.52671875 4.3771875h1.0925v1.0996875h-1.0925Z" fill="#1c54bb" stroke-width="1"></path><path d="M4.38078125 19.708125000000003h14.2384375v1.0996875H4.38078125Z" fill="#1c54bb" stroke-width="1"></path><path d="m16.43421875 3.2846875000000004 0 -1.0996875 -1.0996875 0 0 1.0996875 -1.0925 0 0 1.0925 1.0925 0 0 2.1921874999999997 -1.0925 0 0 1.0925 1.0925 0 0 2.1921874999999997 -1.0925 0 0 1.0925 1.0925 0 0 1.0996875 1.0996875 0 0 -1.0996875 1.0925 0 0 -1.0925 -1.0925 0 0 -2.1921874999999997 1.0925 0 0 -1.0925 -1.0925 0 0 -2.1921874999999997 1.0925 0 0 -1.0925 -1.0925 0z" fill="#1c54bb" stroke-width="1"></path><path d="M13.14234375 8.7615625h1.0996875v1.0925h-1.0996875Z" fill="#1c54bb" stroke-width="1"></path><path d="M13.14234375 4.3771875h1.0996875v2.1921874999999997h-1.0996875Z" fill="#1c54bb" stroke-width="1"></path><path d="M10.95734375 10.9465625h1.0925v1.0996875h-1.0925Z" fill="#1c54bb" stroke-width="1"></path><path d="M10.95734375 8.7615625h1.0925v1.0925h-1.0925Z" fill="#1c54bb" stroke-width="1"></path><path d="M7.66546875 10.9465625h2.1921874999999997v1.0996875h-2.1921874999999997Z" fill="#1c54bb" stroke-width="1"></path><path d="M7.66546875 8.7615625h2.1921874999999997v1.0925h-2.1921874999999997Z" fill="#1c54bb" stroke-width="1"></path><path d="M4.38078125 10.9465625h2.1921874999999997v1.0996875h-2.1921874999999997Z" fill="#1c54bb" stroke-width="1"></path><path d="M4.38078125 8.7615625h2.1921874999999997v1.0925h-2.1921874999999997Z" fill="#1c54bb" stroke-width="1"></path><path d="M4.3843749999999995 7.661875h7.6690625V2.185H4.3843749999999995Zm4.3843749999999995 -4.3771875h1.0925v1.0925H8.768749999999999Zm-2.1921874999999997 0h1.0925v1.0925H6.572968749999999Zm0 2.1921874999999997h3.2846875000000004v1.0925H6.572968749999999Z" fill="#1c54bb" stroke-width="1"></path><path d="M3.2882812500000003 0h16.430625v1.0925H3.2882812500000003Z" fill="#1c54bb" stroke-width="1"></path><path d="M2.19578125 1.0925h1.0925v13.145937499999999h-1.0925Z" fill="#1c54bb" stroke-width="1"></path></g></svg>